<svg version="1.1" id="Layer_1" xmlns="http://www.w3.org/2000/svg" xmlns:xlink="http://www.w3.org/1999/xlink" x="0px" y="0px"
	 width="100%" viewBox="0 0 2084 2084" enable-background="new 0 0 2084 2084" xml:space="preserve">
<path fill="#012068" opacity="1.000000" stroke="none" 
	d="
M1382.000000,2086.000000 
	C921.388306,2086.000000 461.776642,2086.000000 2.082483,2086.000000 
	C2.082483,1391.471436 2.082483,696.942871 2.082483,2.207134 
	C696.445435,2.207134 1390.890869,2.207134 2085.668213,2.207134 
	C2085.668213,696.666565 2085.668213,1391.333252 2085.668213,2086.000000 
	C1851.608765,2086.000000 1617.304321,2086.000000 1382.000000,2086.000000 
M1381.104980,1641.979492 
	C1360.347046,1638.966431 1339.620850,1635.710205 1318.824341,1632.992554 
	C1279.199097,1627.814331 1239.576782,1622.561646 1199.872070,1618.055908 
	C1162.475098,1613.811890 1124.996704,1610.233154 1087.509155,1606.861084 
	C1065.963745,1604.922974 1044.400635,1602.617432 1022.661499,1604.591431 
	C1000.764893,1606.579590 978.791077,1607.736084 956.906860,1609.837891 
	C915.130798,1613.850098 873.320374,1617.661987 831.661011,1622.690308 
	C784.391968,1628.395752 737.201477,1634.863281 690.106812,1641.872803 
	C631.823547,1650.547729 573.673035,1660.115356 515.466858,1669.308472 
	C502.508148,1671.354980 489.556580,1673.446899 476.522766,1675.530518 
	C476.522766,1630.668457 476.522766,1586.823853 476.522766,1543.013550 
	C483.857208,1540.861694 490.548981,1538.872314 497.255768,1536.934937 
	C598.019104,1507.827271 699.741333,1482.622925 802.661987,1462.375610 
	C873.581177,1448.423828 944.938293,1437.125122 1016.709045,1428.556763 
	C1028.554810,1427.142456 1040.815552,1425.273560 1052.462524,1426.811035 
	C1100.317871,1433.128052 1148.086182,1440.208008 1195.744995,1447.885986 
	C1271.022827,1460.013306 1345.621704,1475.650024 1419.857056,1493.020264 
	C1528.464111,1518.433105 1635.740234,1548.634644 1741.969238,1582.602661 
	C1744.630859,1583.453735 1747.399414,1583.970703 1751.014038,1584.865234 
	C1751.014038,1579.990723 1751.014160,1576.363159 1751.014160,1572.735474 
	C1751.014160,1415.075195 1750.963379,1257.414795 1751.174683,1099.754883 
	C1751.184570,1092.451416 1749.123291,1087.477417 1743.807129,1082.462769 
	C1661.194458,1004.536255 1573.111328,933.503357 1478.233154,871.005066 
	C1348.682373,785.667114 1210.514038,718.662659 1061.421631,674.743652 
	C1049.744629,671.303955 1039.289917,671.258911 1027.612183,674.638550 
	C903.352600,710.600586 787.145386,764.535156 676.366943,830.771912 
	C604.750122,873.593262 537.177368,922.199524 471.488647,973.520935 
	C468.748352,975.661865 465.834351,977.580566 461.838806,980.432617 
	C461.838806,975.532349 461.838806,972.277588 461.838837,969.022888 
	C461.838898,934.357605 462.473389,899.675049 461.525482,865.035706 
	C461.148376,851.255127 465.341034,841.901062 475.366516,832.337402 
	C636.615906,678.515747 821.144043,563.148071 1033.101807,492.633209 
	C1041.177490,489.946533 1048.293945,490.026581 1056.279785,492.576935 
	C1136.170532,518.090515 1212.439209,551.922424 1285.504883,592.898193 
	C1460.795044,691.202271 1613.879639,816.609680 1743.975952,969.924866 
	C1745.708496,971.966553 1747.715698,973.775146 1751.014038,977.141113 
	C1751.014038,971.587158 1751.014160,968.322754 1751.014160,965.058350 
	C1751.014038,906.727356 1750.902710,848.395935 1751.157715,790.066040 
	C1751.188843,782.961731 1749.203247,777.403931 1745.118286,771.731445 
	C1684.013184,686.881409 1616.274536,607.744080 1541.771240,534.370544 
	C1463.428589,457.215881 1378.908936,387.651825 1287.297974,326.785919 
	C1213.331665,277.642944 1135.696655,235.271667 1053.925903,200.518173 
	C1047.345947,197.721619 1041.599976,197.108200 1034.946289,200.139709 
	C1017.688599,208.002502 999.931641,214.801834 982.857178,223.028503 
	C903.449585,261.287933 828.428955,307.141968 756.079712,357.236755 
	C593.197205,470.017120 457.205475,609.784790 343.361816,771.536987 
	C340.460754,775.658936 339.608734,779.747437 339.610565,784.552673 
	C339.671967,946.879456 339.660492,1109.206177 339.676361,1271.532959 
	C339.676575,1273.682983 339.890656,1275.833008 339.988678,1277.677002 
	C341.287964,1277.972656 341.693207,1278.204102 341.883606,1278.086914 
	C344.144714,1276.693726 346.416931,1275.311279 348.605072,1273.807983 
	C441.533661,1209.961304 538.300110,1152.639771 639.551636,1102.982300 
	C766.705078,1040.621582 898.523315,991.083313 1036.727905,959.271606 
	C1041.387939,958.198975 1046.687744,958.203003 1051.373779,959.195435 
	C1159.234375,982.037598 1262.967896,1017.440063 1363.959717,1061.425903 
	C1448.003052,1098.030029 1530.325684,1137.903198 1608.587036,1185.820679 
	C1612.241699,1188.058350 1615.818970,1190.422241 1618.712036,1192.267822 
	C1618.712036,1238.062622 1618.712036,1282.836792 1618.712036,1328.578857 
	C1614.824097,1326.840454 1611.854614,1325.525879 1608.895874,1324.187500 
	C1577.051270,1309.782715 1545.437256,1294.841064 1513.325806,1281.058228 
	C1363.895508,1216.918457 1209.839355,1167.558716 1049.904663,1137.221680 
	C1046.402710,1136.557495 1042.577881,1136.261475 1039.116211,1136.916992 
	C969.734436,1150.055908 901.254639,1166.900269 833.605957,1187.158081 
	C684.222717,1231.892090 541.062256,1291.855347 402.557434,1363.207642 
	C381.562317,1374.023560 360.751984,1385.197998 340.252960,1395.997559 
	C338.180634,1420.995239 339.171326,1883.791504 341.268372,1891.261963 
	C810.777771,1891.261963 1280.312622,1891.261963 1750.415771,1891.261963 
	C1750.415771,1829.043945 1750.415771,1767.231079 1750.415771,1705.731812 
	C1749.242920,1705.099365 1748.695923,1704.610229 1748.081177,1704.500610 
	C1687.124512,1693.627563 1626.219971,1682.447632 1565.185059,1672.032227 
	C1504.475464,1661.672363 1443.634644,1652.082642 1381.104980,1641.979492 
z"/>
<path fill="#FEFEFE" opacity="1.000000" stroke="none" 
	d="
M1381.978149,1642.067383 
	C1443.634644,1652.082642 1504.475464,1661.672363 1565.185059,1672.032227 
	C1626.219971,1682.447632 1687.124512,1693.627563 1748.081177,1704.500610 
	C1748.695923,1704.610229 1749.242920,1705.099365 1750.415771,1705.731812 
	C1750.415771,1767.231079 1750.415771,1829.043945 1750.415771,1891.261963 
	C1280.312622,1891.261963 810.777771,1891.261963 341.268372,1891.261963 
	C339.171326,1883.791504 338.180634,1420.995239 340.252960,1395.997559 
	C360.751984,1385.197998 381.562317,1374.023560 402.557434,1363.207642 
	C541.062256,1291.855347 684.222717,1231.892090 833.605957,1187.158081 
	C901.254639,1166.900269 969.734436,1150.055908 1039.116211,1136.916992 
	C1042.577881,1136.261475 1046.402710,1136.557495 1049.904663,1137.221680 
	C1209.839355,1167.558716 1363.895508,1216.918457 1513.325806,1281.058228 
	C1545.437256,1294.841064 1577.051270,1309.782715 1608.895874,1324.187500 
	C1611.854614,1325.525879 1614.824097,1326.840454 1618.712036,1328.578857 
	C1618.712036,1282.836792 1618.712036,1238.062622 1618.712036,1192.267822 
	C1615.818970,1190.422241 1612.241699,1188.058350 1608.587036,1185.820679 
	C1530.325684,1137.903198 1448.003052,1098.030029 1363.959717,1061.425903 
	C1262.967896,1017.440063 1159.234375,982.037598 1051.373779,959.195435 
	C1046.687744,958.203003 1041.387939,958.198975 1036.727905,959.271606 
	C898.523315,991.083313 766.705078,1040.621582 639.551636,1102.982300 
	C538.300110,1152.639771 441.533661,1209.961304 348.605072,1273.807983 
	C346.416931,1275.311279 344.144714,1276.693726 341.883606,1278.086914 
	C341.693207,1278.204102 341.287964,1277.972656 339.988678,1277.677002 
	C339.890656,1275.833008 339.676575,1273.682983 339.676361,1271.532959 
	C339.660492,1109.206177 339.671967,946.879456 339.610565,784.552673 
	C339.608734,779.747437 340.460754,775.658936 343.361816,771.536987 
	C457.205475,609.784790 593.197205,470.017120 756.079712,357.236755 
	C828.428955,307.141968 903.449585,261.287933 982.857178,223.028503 
	C999.931641,214.801834 1017.688599,208.002502 1034.946289,200.139709 
	C1041.599976,197.108200 1047.345947,197.721619 1053.925903,200.518173 
	C1135.696655,235.271667 1213.331665,277.642944 1287.297974,326.785919 
	C1378.908936,387.651825 1463.428589,457.215881 1541.771240,534.370544 
	C1616.274536,607.744080 1684.013184,686.881409 1745.118286,771.731445 
	C1749.203247,777.403931 1751.188843,782.961731 1751.157715,790.066040 
	C1750.902710,848.395935 1751.014038,906.727356 1751.014160,965.058350 
	C1751.014160,968.322754 1751.014038,971.587158 1751.014038,977.141113 
	C1747.715698,973.775146 1745.708496,971.966553 1743.975952,969.924866 
	C1613.879639,816.609680 1460.795044,691.202271 1285.504883,592.898193 
	C1212.439209,551.922424 1136.170532,518.090515 1056.279785,492.576935 
	C1048.293945,490.026581 1041.177490,489.946533 1033.101807,492.633209 
	C821.144043,563.148071 636.615906,678.515747 475.366516,832.337402 
	C465.341034,841.901062 461.148376,851.255127 461.525482,865.035706 
	C462.473389,899.675049 461.838898,934.357605 461.838837,969.022888 
	C461.838806,972.277588 461.838806,975.532349 461.838806,980.432617 
	C465.834351,977.580566 468.748352,975.661865 471.488647,973.520935 
	C537.177368,922.199524 604.750122,873.593262 676.366943,830.771912 
	C787.145386,764.535156 903.352600,710.600586 1027.612183,674.638550 
	C1039.289917,671.258911 1049.744629,671.303955 1061.421631,674.743652 
	C1210.514038,718.662659 1348.682373,785.667114 1478.233154,871.005066 
	C1573.111328,933.503357 1661.194458,1004.536255 1743.807129,1082.462769 
	C1749.123291,1087.477417 1751.184570,1092.451416 1751.174683,1099.754883 
	C1750.963379,1257.414795 1751.014160,1415.075195 1751.014160,1572.735474 
	C1751.014160,1576.363159 1751.014038,1579.990723 1751.014038,1584.865234 
	C1747.399414,1583.970703 1744.630859,1583.453735 1741.969238,1582.602661 
	C1635.740234,1548.634644 1528.464111,1518.433105 1419.857056,1493.020264 
	C1345.621704,1475.650024 1271.022827,1460.013306 1195.744995,1447.885986 
	C1148.086182,1440.208008 1100.317871,1433.128052 1052.462524,1426.811035 
	C1040.815552,1425.273560 1028.554810,1427.142456 1016.709045,1428.556763 
	C944.938293,1437.125122 873.581177,1448.423828 802.661987,1462.375610 
	C699.741333,1482.622925 598.019104,1507.827271 497.255768,1536.934937 
	C490.548981,1538.872314 483.857208,1540.861694 476.522766,1543.013550 
	C476.522766,1586.823853 476.522766,1630.668457 476.522766,1675.530518 
	C489.556580,1673.446899 502.508148,1671.354980 515.466858,1669.308472 
	C573.673035,1660.115356 631.823547,1650.547729 690.106812,1641.872803 
	C737.201477,1634.863281 784.391968,1628.395752 831.661011,1622.690308 
	C873.320374,1617.661987 915.130798,1613.850098 956.906860,1609.837891 
	C978.791077,1607.736084 1000.764893,1606.579590 1022.661499,1604.591431 
	C1044.400635,1602.617432 1065.963745,1604.922974 1087.509155,1606.861084 
	C1124.996704,1610.233154 1162.475098,1613.811890 1199.872070,1618.055908 
	C1239.576782,1622.561646 1279.199097,1627.814331 1318.824341,1632.992554 
	C1339.620850,1635.710205 1360.347046,1638.966431 1381.978149,1642.067383 
z"/>
</svg>