<svg version="1.1" id="Layer_1" xmlns="http://www.w3.org/2000/svg" xmlns:xlink="http://www.w3.org/1999/xlink" x="0px" y="0px"
	 width="100%" viewBox="0 0 2084 2084" enable-background="new 0 0 2084 2084" xml:space="preserve">
<path fill="#000000" opacity="1.000000" stroke="none" 
	d="
M1388.000000,2086.000000 
	C925.388550,2086.000000 463.777130,2086.000000 2.082841,2086.000000 
	C2.082841,1391.471680 2.082841,696.943298 2.082841,2.207492 
	C696.445190,2.207492 1390.890381,2.207492 2085.667969,2.207492 
	C2085.667969,696.666565 2085.667969,1391.333252 2085.667969,2086.000000 
	C1853.609253,2086.000000 1621.304565,2086.000000 1388.000000,2086.000000 
M1679.465454,683.215942 
	C1678.682617,682.805603 1677.899780,682.395264 1676.104736,681.240845 
	C1633.856812,629.646606 1589.034790,580.408142 1541.489624,533.636841 
	C1467.210449,460.566528 1387.364746,394.277496 1301.144653,335.716949 
	C1223.011963,282.649292 1140.787109,237.072128 1053.811279,200.110016 
	C1047.167725,197.286713 1041.438599,196.881699 1034.874268,199.843399 
	C1018.511230,207.226120 1001.712219,213.674271 985.529541,221.419662 
	C902.137268,261.333160 823.621704,309.642700 747.948608,362.459015 
	C616.117065,454.471283 502.251404,565.603882 402.586365,691.472778 
	C384.821716,713.908081 368.034149,737.117065 349.439758,760.261780 
	C349.219696,761.075745 348.999634,761.889771 348.068146,762.537109 
	C348.068146,762.537109 348.759308,762.774597 347.565216,762.609619 
	C347.513855,763.281555 347.462494,763.953552 347.273682,765.075623 
	C347.273682,765.075623 346.961304,765.427734 345.640320,764.760925 
	C337.587830,769.838562 336.242889,777.990601 336.187744,786.424072 
	C336.013336,813.084229 336.062683,839.746033 336.065796,866.407166 
	C336.081299,999.387573 336.109436,1132.367920 336.136047,1265.348389 
	C336.136505,1267.680908 335.664795,1270.160278 336.287262,1272.319214 
	C338.349976,1279.473389 335.705719,1285.919678 334.250458,1292.702026 
	C331.760040,1304.309082 329.438904,1316.036743 328.344604,1327.833984 
	C327.363770,1338.407715 327.821381,1349.156128 328.259735,1359.802246 
	C328.474487,1365.017578 328.696686,1371.087402 331.369415,1375.160034 
	C336.199310,1382.519531 336.144012,1390.155029 336.143372,1398.138672 
	C336.130646,1557.782349 336.131531,1717.425903 336.131927,1877.069580 
	C336.131958,1880.068848 335.811371,1883.127319 336.309265,1886.044067 
	C336.589417,1887.685181 338.241272,1889.092163 339.721741,1891.045654 
	C339.721741,1891.045654 339.855225,1891.658936 340.071594,1893.343384 
	C341.983856,1894.184448 343.881470,1895.702515 345.811005,1895.744263 
	C352.587799,1895.890869 359.375580,1895.529419 367.004517,1895.593140 
	C367.004517,1895.593140 367.861542,1895.408691 369.403076,1895.686035 
	C370.965759,1895.690674 372.528473,1895.695435 375.935211,1895.921387 
	C393.862457,1895.753174 411.789734,1895.584961 431.612335,1895.646118 
	C456.576080,1895.730957 481.539795,1895.886353 506.503540,1895.889282 
	C681.925598,1895.910156 857.347595,1895.909302 1032.769653,1895.831177 
	C1036.356812,1895.829590 1039.943604,1894.813843 1044.934326,1895.221313 
	C1051.860718,1895.285156 1058.786987,1895.348999 1067.566650,1895.642090 
	C1073.779419,1895.552612 1079.992310,1895.463257 1087.386108,1895.690186 
	C1088.187500,1895.589478 1088.989014,1895.488770 1091.668945,1895.683472 
	C1094.332397,1895.755615 1096.995972,1895.890747 1099.659424,1895.890869 
	C1299.276245,1895.897583 1498.893188,1895.894043 1698.510010,1895.890503 
	C1713.836060,1895.890137 1729.163086,1895.979614 1744.487915,1895.841553 
	C1752.143188,1895.772705 1753.633667,1894.151367 1754.083618,1886.430542 
	C1754.219238,1884.105469 1754.113281,1881.766357 1754.113403,1879.433594 
	C1754.114868,1824.447144 1754.111084,1769.460693 1754.127930,1714.474243 
	C1754.128906,1711.146729 1753.929810,1707.762573 1754.439453,1704.500977 
	C1757.610962,1684.203735 1761.425293,1663.987061 1760.098022,1643.265137 
	C1759.378418,1632.031494 1758.217407,1620.754761 1758.651855,1609.551514 
	C1758.846802,1604.526855 1759.704346,1599.561035 1757.341553,1595.175659 
	C1754.156372,1589.263428 1754.088135,1583.120117 1754.089355,1576.769043 
	C1754.119995,1417.808228 1754.114624,1258.847412 1754.115601,1099.886597 
	C1754.115723,1097.553833 1753.984985,1095.210571 1754.171021,1092.892700 
	C1754.266235,1091.704468 1754.617920,1089.837891 1755.381958,1089.510376 
	C1763.051880,1086.222778 1759.367920,1080.121216 1759.183594,1074.918945 
	C1758.973877,1068.996338 1758.382690,1063.070923 1758.498779,1057.157349 
	C1758.615234,1051.227173 1759.906372,1045.299805 1759.786011,1039.389404 
	C1759.529297,1026.787964 1758.800781,1014.191711 1758.038818,1001.607056 
	C1757.740479,996.680969 1756.810669,991.794556 1756.210449,986.885010 
	C1755.489014,980.984558 1754.222046,975.080139 1754.207031,969.174805 
	C1754.056763,909.856445 1754.177856,850.537415 1754.005615,791.219177 
	C1753.990479,786.016052 1752.659546,780.763123 1751.413330,775.661987 
	C1751.161133,774.629333 1748.528931,774.178040 1746.662964,773.084534 
	C1746.662964,773.084534 1746.534180,772.601624 1747.124634,771.566101 
	C1746.491943,771.333557 1745.859131,771.101074 1745.249268,770.709351 
	C1745.249268,770.709351 1745.088501,770.713013 1745.708252,769.307007 
	C1744.642944,764.876648 1743.667847,760.367859 1737.950806,760.034912 
	C1737.950806,760.034912 1737.817261,760.223816 1738.196655,758.750549 
	C1737.752319,754.921814 1736.436401,751.928345 1731.978394,752.023987 
	C1731.978394,752.023987 1731.884521,752.170776 1732.105103,750.769409 
	C1731.116821,750.104919 1730.128662,749.440491 1729.731689,748.157898 
	C1729.731689,748.157898 1729.084595,748.717346 1729.715454,747.288513 
	C1729.289551,744.606995 1728.733765,742.081970 1724.738403,743.038879 
	C1724.738403,743.038879 1724.596436,742.632812 1725.174927,741.569885 
	C1724.523315,741.336243 1723.871582,741.102600 1723.279419,740.683899 
	C1723.279419,740.683899 1723.090576,740.729797 1723.654541,739.376343 
	C1722.377930,738.276550 1721.101318,737.176697 1719.976929,736.021790 
	C1719.976929,736.021790 1719.891724,736.159485 1720.200439,734.682190 
	C1719.622681,730.993225 1718.472534,727.857544 1713.983643,728.012085 
	C1713.983643,728.012085 1713.886841,728.153748 1714.220825,726.669922 
	C1713.705322,722.860352 1712.444092,719.794434 1707.935181,720.067749 
	C1707.935181,720.067749 1707.814697,720.254517 1708.063232,718.827637 
	C1707.056274,718.268616 1706.049316,717.709534 1704.939331,716.901367 
	C1704.939331,716.901367 1704.780029,716.683899 1705.313599,715.545959 
	C1704.643433,715.225708 1703.973145,714.905457 1703.791260,714.036499 
	C1703.791260,714.036499 1703.359863,714.630920 1703.578491,713.387939 
	C1702.910767,712.997803 1702.242920,712.607605 1701.768433,712.189148 
	C1701.768433,712.189148 1701.704346,712.373840 1701.972046,710.945923 
	C1700.987549,710.427795 1700.002930,709.909668 1698.817261,709.099609 
	C1698.817261,709.099609 1698.623657,708.802429 1699.488525,707.536499 
	C1699.411865,703.748413 1697.471436,701.977600 1693.887817,702.084351 
	C1693.887817,702.084351 1693.805786,702.282593 1693.899658,701.075073 
	C1693.236328,700.720093 1692.572876,700.365112 1692.007568,699.997620 
	C1692.007568,699.997620 1691.972656,700.090088 1692.260620,698.605530 
	C1691.648560,694.867920 1690.354370,691.825317 1685.905518,692.066345 
	C1685.905518,692.066345 1685.817383,692.269348 1685.898071,691.064819 
	C1685.234985,690.713745 1684.571899,690.362671 1684.007935,689.998291 
	C1684.007935,689.998291 1683.973389,690.092102 1684.152832,688.694641 
	C1683.140137,688.086304 1682.127563,687.477966 1681.270996,686.629944 
	C1681.270996,686.629944 1681.005249,686.735718 1681.417358,685.527405 
	C1680.733276,685.175415 1680.049316,684.823425 1679.589966,684.364563 
	C1679.589966,684.364563 1679.529297,684.605896 1679.465454,683.215942 
z"/>
<path fill="#FEFEFE" opacity="1.000000" stroke="none" 
	d="
M339.855225,1891.658936 
	C339.855225,1891.658936 339.721741,1891.045654 339.671082,1889.842529 
	C339.620422,1724.665649 339.620422,1560.692017 339.620422,1396.674683 
	C342.980743,1394.811523 345.870422,1393.179199 348.786926,1391.596436 
	C404.406342,1361.414062 460.940887,1333.051636 518.488831,1306.735474 
	C684.999329,1230.592041 857.081482,1171.467773 1037.322266,1137.395630 
	C1041.433472,1136.618530 1045.939453,1136.523926 1050.038696,1137.294434 
	C1147.675415,1155.645874 1243.298340,1181.597168 1337.362427,1213.474365 
	C1429.213135,1244.601318 1518.752808,1281.358765 1606.338623,1322.951782 
	C1610.331543,1324.847778 1614.014526,1328.229248 1619.233154,1327.434448 
	C1619.233154,1282.458008 1619.233154,1237.809204 1619.233154,1192.568848 
	C1616.042969,1190.528198 1612.739502,1188.329346 1609.355103,1186.262695 
	C1540.471313,1144.197510 1468.515015,1108.121216 1394.948853,1075.013184 
	C1284.138062,1025.143433 1170.377441,984.234985 1051.260864,959.149597 
	C1046.576782,958.163147 1041.282227,958.228516 1036.612427,959.294983 
	C946.537109,979.864868 858.970459,1008.386536 773.379028,1043.056885 
	C623.979736,1103.573608 483.885651,1181.267334 350.945923,1272.145996 
	C347.752319,1274.329102 344.470673,1276.383423 339.674255,1279.512939 
	C339.674255,1274.396240 339.674255,1270.885864 339.674255,1267.375488 
	C339.674103,1110.045288 339.716675,952.714966 339.579926,795.384827 
	C339.570587,784.630493 339.405548,774.166321 346.961304,765.427734 
	C346.961304,765.427734 347.273682,765.075623 347.762115,764.713745 
	C348.807037,763.950806 348.976624,763.425049 348.759308,762.774597 
	C348.759308,762.774597 348.068146,762.537109 348.982910,762.368896 
	C350.196930,761.456787 350.496185,760.712769 350.795410,759.968811 
	C368.034149,737.117065 384.821716,713.908081 402.586365,691.472778 
	C502.251404,565.603882 616.117065,454.471283 747.948608,362.459015 
	C823.621704,309.642700 902.137268,261.333160 985.529541,221.419662 
	C1001.712219,213.674271 1018.511230,207.226120 1034.874268,199.843399 
	C1041.438599,196.881699 1047.167725,197.286713 1053.811279,200.110016 
	C1140.787109,237.072128 1223.011963,282.649292 1301.144653,335.716949 
	C1387.364746,394.277496 1467.210449,460.566528 1541.489624,533.636841 
	C1589.034790,580.408142 1633.856812,629.646606 1676.790771,682.239258 
	C1678.160889,683.693665 1678.845093,684.149780 1679.529297,684.605896 
	C1679.529297,684.605896 1679.589966,684.364563 1679.480225,684.947876 
	C1679.915283,685.932739 1680.460327,686.334229 1681.005249,686.735718 
	C1681.005249,686.735718 1681.270996,686.629944 1681.312012,687.328735 
	C1682.226318,688.715698 1683.099854,689.403931 1683.973389,690.092102 
	C1683.973389,690.092102 1684.007935,689.998291 1683.976074,690.589905 
	C1684.568726,691.544128 1685.192993,691.906738 1685.817383,692.269348 
	C1685.817383,692.269348 1685.905518,692.066345 1685.848145,692.788818 
	C1687.851562,695.704163 1689.912109,697.897095 1691.972656,700.090088 
	C1691.972656,700.090088 1692.007568,699.997620 1691.975098,700.588135 
	C1692.563721,701.546570 1693.184814,701.914612 1693.805786,702.282593 
	C1693.805786,702.282593 1693.887817,702.084351 1693.801514,702.761230 
	C1695.351196,705.226257 1696.987427,707.014343 1698.623657,708.802490 
	C1698.623657,708.802429 1698.817261,709.099609 1699.040527,709.787720 
	C1700.077271,711.108459 1700.890747,711.741150 1701.704346,712.373840 
	C1701.704346,712.373840 1701.768433,712.189148 1701.667236,712.783447 
	C1702.163940,713.795471 1702.761963,714.213196 1703.359863,714.630920 
	C1703.359863,714.630920 1703.791260,714.036499 1703.521240,714.804199 
	C1703.547607,716.235901 1704.057251,716.606567 1704.780029,716.683899 
	C1704.780029,716.683899 1704.939331,716.901367 1705.126953,717.582275 
	C1706.147949,718.926941 1706.981323,719.590698 1707.814697,720.254517 
	C1707.814697,720.254517 1707.935181,720.067749 1707.868896,720.780640 
	C1709.830811,723.713562 1711.858887,725.933655 1713.886841,728.153687 
	C1713.886841,728.153748 1713.983643,728.012085 1713.932495,728.716553 
	C1715.884888,731.667175 1717.888306,733.913330 1719.891724,736.159485 
	C1719.891724,736.159485 1719.976929,736.021790 1719.905029,736.659546 
	C1720.918823,738.441467 1722.004761,739.585632 1723.090576,740.729797 
	C1723.090576,740.729797 1723.279419,740.683899 1723.255127,741.206055 
	C1723.499878,742.311340 1723.955078,742.612854 1724.596436,742.632812 
	C1724.596436,742.632812 1724.738403,743.038879 1724.997070,743.777954 
	C1726.532104,745.917175 1727.808350,747.317261 1729.084595,748.717346 
	C1729.084595,748.717346 1729.731689,748.157898 1729.521240,749.065430 
	C1730.168701,750.705505 1731.026611,751.438171 1731.884521,752.170776 
	C1731.884521,752.170776 1731.978394,752.023987 1731.922607,752.727051 
	C1733.850342,755.694641 1735.833862,757.959229 1737.817261,760.223816 
	C1737.817261,760.223816 1737.950806,760.034912 1737.871094,760.771851 
	C1740.223755,764.576843 1742.656128,767.644897 1745.088501,770.713013 
	C1745.088501,770.713013 1745.249268,770.709351 1745.235352,771.206726 
	C1745.470581,772.279541 1745.908081,772.578674 1746.534180,772.601624 
	C1746.534180,772.601624 1746.662964,773.084534 1747.052612,774.021484 
	C1750.710083,778.756958 1751.038696,783.252197 1751.031982,788.047180 
	C1750.949219,848.041626 1750.985474,908.036194 1750.951294,968.030762 
	C1750.949829,970.472595 1750.553101,972.914246 1750.189209,977.094604 
	C1747.444702,973.963440 1745.950195,972.325195 1744.528198,970.626221 
	C1710.913330,930.467590 1675.221436,892.243774 1637.639282,855.776306 
	C1538.169312,759.256653 1428.869263,675.658997 1308.929321,606.115784 
	C1228.626099,559.554565 1144.791626,520.781067 1056.202637,492.617218 
	C1049.092285,490.356750 1042.531372,489.476715 1034.932983,491.994690 
	C818.573364,563.692200 630.818604,681.896057 467.572693,840.129883 
	C463.408783,844.165894 461.688080,848.250488 461.720734,854.045593 
	C461.942291,893.374084 461.823822,932.704468 461.864014,972.034241 
	C461.866486,974.452759 462.284027,976.870972 462.597595,980.249878 
	C466.500946,977.296997 469.412262,975.149780 472.265411,972.927856 
	C519.069397,936.476501 566.620239,901.043457 616.299744,868.575256 
	C746.371277,783.567017 884.253113,715.218628 1034.322144,672.873047 
	C1041.308105,670.901733 1047.658936,670.882324 1054.626343,672.889648 
	C1140.584839,697.654114 1223.484985,730.238770 1303.496704,770.155151 
	C1467.320190,851.883728 1613.161621,958.950745 1745.905884,1084.462402 
	C1749.999390,1088.332886 1751.052612,1092.409668 1751.049683,1097.683716 
	C1750.962036,1257.335815 1750.980957,1416.988037 1750.949341,1576.640137 
	C1750.948853,1579.165039 1750.523071,1581.690063 1750.227173,1584.975586 
	C1746.554810,1583.907471 1743.700928,1583.148438 1740.891602,1582.250366 
	C1595.915039,1535.901978 1449.048218,1496.786987 1299.769531,1466.886353 
	C1222.377686,1451.384766 1144.552124,1438.495361 1066.280273,1428.363647 
	C1055.450562,1426.961792 1044.332275,1425.914307 1033.507935,1426.758179 
	C1014.607666,1428.231934 995.829773,1431.287231 977.004211,1433.708008 
	C914.567871,1441.736084 852.558838,1452.388672 790.850342,1464.730713 
	C702.710876,1482.359253 615.432434,1503.625977 528.907715,1527.974609 
	C511.364624,1532.911133 493.859985,1537.984253 476.437012,1542.966064 
	C476.437012,1587.630737 476.437012,1631.443726 476.437012,1675.655029 
	C490.208160,1673.392944 503.323517,1671.186646 516.456482,1669.090942 
	C565.109436,1661.326172 613.730469,1653.350464 662.436523,1645.933350 
	C702.261841,1639.868774 742.145386,1634.137939 782.087769,1628.905273 
	C818.407349,1624.147217 854.806091,1619.928711 891.234619,1616.085083 
	C924.688538,1612.555298 958.192871,1609.342041 991.743225,1606.944214 
	C1014.632019,1605.308228 1037.656128,1604.408203 1060.586426,1604.863647 
	C1080.191650,1605.252930 1099.776245,1607.781128 1119.322632,1609.817627 
	C1165.035889,1614.580200 1210.794067,1619.027710 1256.396729,1624.705688 
	C1301.986450,1630.381836 1347.462402,1637.047241 1392.890259,1643.925781 
	C1440.614258,1651.152100 1488.278687,1658.811890 1535.865601,1666.891968 
	C1590.997314,1676.253052 1646.019775,1686.257935 1701.081665,1696.028564 
	C1717.402466,1698.924683 1733.696167,1701.973755 1750.260742,1705.000122 
	C1750.260742,1767.392090 1750.260742,1829.139404 1750.260742,1891.658936 
	C1279.647461,1891.658936 809.751343,1891.658936 339.855225,1891.658936 
z"/>
<path fill="#022169" opacity="1.000000" stroke="none" 
	d="
M339.963409,1892.501221 
	C809.751343,1891.658936 1279.647461,1891.658936 1750.260742,1891.658936 
	C1750.260742,1829.139404 1750.260742,1767.392090 1750.260742,1705.000122 
	C1733.696167,1701.973755 1717.402466,1698.924683 1701.081665,1696.028564 
	C1646.019775,1686.257935 1590.997314,1676.253052 1535.865601,1666.891968 
	C1488.278687,1658.811890 1440.614258,1651.152100 1392.890259,1643.925781 
	C1347.462402,1637.047241 1301.986450,1630.381836 1256.396729,1624.705688 
	C1210.794067,1619.027710 1165.035889,1614.580200 1119.322632,1609.817627 
	C1099.776245,1607.781128 1080.191650,1605.252930 1060.586426,1604.863647 
	C1037.656128,1604.408203 1014.632019,1605.308228 991.743225,1606.944214 
	C958.192871,1609.342041 924.688538,1612.555298 891.234619,1616.085083 
	C854.806091,1619.928711 818.407349,1624.147217 782.087769,1628.905273 
	C742.145386,1634.137939 702.261841,1639.868774 662.436523,1645.933350 
	C613.730469,1653.350464 565.109436,1661.326172 516.456482,1669.090942 
	C503.323517,1671.186646 490.208160,1673.392944 476.437012,1675.655029 
	C476.437012,1631.443726 476.437012,1587.630737 476.437012,1542.966064 
	C493.859985,1537.984253 511.364624,1532.911133 528.907715,1527.974609 
	C615.432434,1503.625977 702.710876,1482.359253 790.850342,1464.730713 
	C852.558838,1452.388672 914.567871,1441.736084 977.004211,1433.708008 
	C995.829773,1431.287231 1014.607666,1428.231934 1033.507935,1426.758179 
	C1044.332275,1425.914307 1055.450562,1426.961792 1066.280273,1428.363647 
	C1144.552124,1438.495361 1222.377686,1451.384766 1299.769531,1466.886353 
	C1449.048218,1496.786987 1595.915039,1535.901978 1740.891602,1582.250366 
	C1743.700928,1583.148438 1746.554810,1583.907471 1750.227173,1584.975586 
	C1750.523071,1581.690063 1750.948853,1579.165039 1750.949341,1576.640137 
	C1750.980957,1416.988037 1750.962036,1257.335815 1751.049683,1097.683716 
	C1751.052612,1092.409668 1749.999390,1088.332886 1745.905884,1084.462402 
	C1613.161621,958.950745 1467.320190,851.883728 1303.496704,770.155151 
	C1223.484985,730.238770 1140.584839,697.654114 1054.626343,672.889648 
	C1047.658936,670.882324 1041.308105,670.901733 1034.322144,672.873047 
	C884.253113,715.218628 746.371277,783.567017 616.299744,868.575256 
	C566.620239,901.043457 519.069397,936.476501 472.265411,972.927856 
	C469.412262,975.149780 466.500946,977.296997 462.597595,980.249878 
	C462.284027,976.870972 461.866486,974.452759 461.864014,972.034241 
	C461.823822,932.704468 461.942291,893.374084 461.720734,854.045593 
	C461.688080,848.250488 463.408783,844.165894 467.572693,840.129883 
	C630.818604,681.896057 818.573364,563.692200 1034.932983,491.994690 
	C1042.531372,489.476715 1049.092285,490.356750 1056.202637,492.617218 
	C1144.791626,520.781067 1228.626099,559.554565 1308.929321,606.115784 
	C1428.869263,675.658997 1538.169312,759.256653 1637.639282,855.776306 
	C1675.221436,892.243774 1710.913330,930.467590 1744.528198,970.626221 
	C1745.950195,972.325195 1747.444702,973.963440 1750.189209,977.094604 
	C1750.553101,972.914246 1750.949829,970.472595 1750.951294,968.030762 
	C1750.985474,908.036194 1750.949219,848.041626 1751.031982,788.047180 
	C1751.038696,783.252197 1750.710083,778.756958 1747.218140,774.208618 
	C1748.528931,774.178040 1751.161133,774.629333 1751.413330,775.661987 
	C1752.659546,780.763123 1753.990479,786.016052 1754.005615,791.219177 
	C1754.177856,850.537415 1754.056763,909.856445 1754.207031,969.174805 
	C1754.222046,975.080139 1755.489014,980.984558 1756.210449,986.885010 
	C1756.810669,991.794556 1757.740479,996.680969 1758.038818,1001.607056 
	C1758.800781,1014.191711 1759.529297,1026.787964 1759.786011,1039.389404 
	C1759.906372,1045.299805 1758.615234,1051.227173 1758.498779,1057.157349 
	C1758.382690,1063.070923 1758.973877,1068.996338 1759.183594,1074.918945 
	C1759.367920,1080.121216 1763.051880,1086.222778 1755.381958,1089.510376 
	C1754.617920,1089.837891 1754.266235,1091.704468 1754.171021,1092.892700 
	C1753.984985,1095.210571 1754.115723,1097.553833 1754.115601,1099.886597 
	C1754.114624,1258.847412 1754.119995,1417.808228 1754.089355,1576.769043 
	C1754.088135,1583.120117 1754.156372,1589.263428 1757.341553,1595.175659 
	C1759.704346,1599.561035 1758.846802,1604.526855 1758.651855,1609.551514 
	C1758.217407,1620.754761 1759.378418,1632.031494 1760.098022,1643.265137 
	C1761.425293,1663.987061 1757.610962,1684.203735 1754.439453,1704.500977 
	C1753.929810,1707.762573 1754.128906,1711.146729 1754.127930,1714.474243 
	C1754.111084,1769.460693 1754.114868,1824.447144 1754.113403,1879.433594 
	C1754.113281,1881.766357 1754.219238,1884.105469 1754.083618,1886.430542 
	C1753.633667,1894.151367 1752.143188,1895.772705 1744.487915,1895.841553 
	C1729.163086,1895.979614 1713.836060,1895.890137 1698.510010,1895.890503 
	C1498.893188,1895.894043 1299.276245,1895.897583 1099.659424,1895.890869 
	C1096.995972,1895.890747 1094.332397,1895.755615 1090.444580,1895.213013 
	C1088.215088,1894.953003 1087.210083,1895.163452 1086.205078,1895.373779 
	C1079.992310,1895.463257 1073.779419,1895.552612 1066.025879,1895.072021 
	C1057.500122,1894.425171 1050.515381,1894.348267 1043.530518,1894.271362 
	C1039.943604,1894.813843 1036.356812,1895.829590 1032.769653,1895.831177 
	C857.347595,1895.909302 681.925598,1895.910156 506.503540,1895.889282 
	C481.539795,1895.886353 456.576080,1895.730957 430.037598,1895.070801 
	C411.844147,1894.334106 395.225525,1894.128418 378.606506,1894.086914 
	C377.102722,1894.083130 375.596313,1895.137207 374.091156,1895.700195 
	C372.528473,1895.695435 370.965759,1895.690674 368.465820,1895.331787 
	C366.976624,1894.669922 366.520172,1894.797607 366.159210,1895.360840 
	C359.375580,1895.529419 352.587799,1895.890869 345.811005,1895.744263 
	C343.881470,1895.702515 341.983856,1894.184448 339.963409,1892.501221 
z"/>
<path fill="#032169" opacity="1.000000" stroke="none" 
	d="
M346.300812,765.094360 
	C339.405548,774.166321 339.570587,784.630493 339.579926,795.384827 
	C339.716675,952.714966 339.674103,1110.045288 339.674255,1267.375488 
	C339.674255,1270.885864 339.674255,1274.396240 339.674255,1279.512939 
	C344.470673,1276.383423 347.752319,1274.329102 350.945923,1272.145996 
	C483.885651,1181.267334 623.979736,1103.573608 773.379028,1043.056885 
	C858.970459,1008.386536 946.537109,979.864868 1036.612427,959.294983 
	C1041.282227,958.228516 1046.576782,958.163147 1051.260864,959.149597 
	C1170.377441,984.234985 1284.138062,1025.143433 1394.948853,1075.013184 
	C1468.515015,1108.121216 1540.471313,1144.197510 1609.355103,1186.262695 
	C1612.739502,1188.329346 1616.042969,1190.528198 1619.233154,1192.568848 
	C1619.233154,1237.809204 1619.233154,1282.458008 1619.233154,1327.434448 
	C1614.014526,1328.229248 1610.331543,1324.847778 1606.338623,1322.951782 
	C1518.752808,1281.358765 1429.213135,1244.601318 1337.362427,1213.474365 
	C1243.298340,1181.597168 1147.675415,1155.645874 1050.038696,1137.294434 
	C1045.939453,1136.523926 1041.433472,1136.618530 1037.322266,1137.395630 
	C857.081482,1171.467773 684.999329,1230.592041 518.488831,1306.735474 
	C460.940887,1333.051636 404.406342,1361.414062 348.786926,1391.596436 
	C345.870422,1393.179199 342.980743,1394.811523 339.620422,1396.674683 
	C339.620422,1560.692017 339.620422,1724.665649 339.447784,1889.621948 
	C338.241272,1889.092163 336.589417,1887.685181 336.309265,1886.044067 
	C335.811371,1883.127319 336.131958,1880.068848 336.131927,1877.069580 
	C336.131531,1717.425903 336.130646,1557.782349 336.143372,1398.138672 
	C336.144012,1390.155029 336.199310,1382.519531 331.369415,1375.160034 
	C328.696686,1371.087402 328.474487,1365.017578 328.259735,1359.802246 
	C327.821381,1349.156128 327.363770,1338.407715 328.344604,1327.833984 
	C329.438904,1316.036743 331.760040,1304.309082 334.250458,1292.702026 
	C335.705719,1285.919678 338.349976,1279.473389 336.287262,1272.319214 
	C335.664795,1270.160278 336.136505,1267.680908 336.136047,1265.348389 
	C336.109436,1132.367920 336.081299,999.387573 336.065796,866.407166 
	C336.062683,839.746033 336.013336,813.084229 336.187744,786.424072 
	C336.242889,777.990601 337.587830,769.838562 346.300812,765.094360 
z"/>
<path fill="#00285A" opacity="1.000000" stroke="none" 
	d="
M375.013184,1895.810791 
	C375.596313,1895.137207 377.102722,1894.083130 378.606506,1894.086914 
	C395.225525,1894.128418 411.844147,1894.334106 429.089905,1894.956055 
	C411.789734,1895.584961 393.862457,1895.753174 375.013184,1895.810791 
z"/>
<path fill="#022169" opacity="1.000000" stroke="none" 
	d="
M1745.398438,770.010010 
	C1742.656128,767.644897 1740.223755,764.576843 1737.771729,760.831055 
	C1743.667847,760.367859 1744.642944,764.876648 1745.398438,770.010010 
z"/>
<path fill="#00285A" opacity="1.000000" stroke="none" 
	d="
M1044.232422,1894.746338 
	C1050.515381,1894.348267 1057.500122,1894.425171 1065.099121,1894.957520 
	C1058.786987,1895.348999 1051.860718,1895.285156 1044.232422,1894.746338 
z"/>
<path fill="#022169" opacity="1.000000" stroke="none" 
	d="
M1692.116699,699.347778 
	C1689.912109,697.897095 1687.851562,695.704163 1685.755371,692.848938 
	C1690.354370,691.825317 1691.648560,694.867920 1692.116699,699.347778 
z"/>
<path fill="#022169" opacity="1.000000" stroke="none" 
	d="
M1738.006958,759.487183 
	C1735.833862,757.959229 1733.850342,755.694641 1731.843628,752.763916 
	C1736.436401,751.928345 1737.752319,754.921814 1738.006958,759.487183 
z"/>
<path fill="#022169" opacity="1.000000" stroke="none" 
	d="
M1714.053833,727.411804 
	C1711.858887,725.933655 1709.830811,723.713562 1707.769165,720.829468 
	C1712.444092,719.794434 1713.705322,722.860352 1714.053833,727.411804 
z"/>
<path fill="#022169" opacity="1.000000" stroke="none" 
	d="
M1720.046143,735.420837 
	C1717.888306,733.913330 1715.884888,731.667175 1713.857178,728.757629 
	C1718.472534,727.857544 1719.622681,730.993225 1720.046143,735.420837 
z"/>
<path fill="#022169" opacity="1.000000" stroke="none" 
	d="
M1699.056152,708.169495 
	C1696.987427,707.014343 1695.351196,705.226257 1693.707520,702.813232 
	C1697.471436,701.977600 1699.411865,703.748413 1699.056152,708.169495 
z"/>
<path fill="#022169" opacity="1.000000" stroke="none" 
	d="
M1729.400024,748.002930 
	C1727.808350,747.317261 1726.532104,745.917175 1725.130615,743.946594 
	C1728.733765,742.081970 1729.289551,744.606995 1729.400024,748.002930 
z"/>
<path fill="#022169" opacity="1.000000" stroke="none" 
	d="
M1723.372559,740.053101 
	C1722.004761,739.585632 1720.918823,738.441467 1719.828857,736.687134 
	C1721.101318,737.176697 1722.377930,738.276550 1723.372559,740.053101 
z"/>
<path fill="#022169" opacity="1.000000" stroke="none" 
	d="
M1707.938965,719.541077 
	C1706.981323,719.590698 1706.147949,718.926941 1705.178467,717.706787 
	C1706.049316,717.709534 1707.056274,718.268616 1707.938965,719.541077 
z"/>
<path fill="#022169" opacity="1.000000" stroke="none" 
	d="
M1731.994873,751.470093 
	C1731.026611,751.438171 1730.168701,750.705505 1729.225586,749.374451 
	C1730.128662,749.440491 1731.116821,750.104919 1731.994873,751.470093 
z"/>
<path fill="#022169" opacity="1.000000" stroke="none" 
	d="
M1701.838135,711.659912 
	C1700.890747,711.741150 1700.077271,711.108459 1699.141113,709.933716 
	C1700.002930,709.909668 1700.987549,710.427795 1701.838135,711.659912 
z"/>
<path fill="#022169" opacity="1.000000" stroke="none" 
	d="
M1684.063110,689.393372 
	C1683.099854,689.403931 1682.226318,688.715698 1681.233887,687.448547 
	C1682.127563,687.477966 1683.140137,688.086304 1684.063110,689.393372 
z"/>
<path fill="#00285A" opacity="1.000000" stroke="none" 
	d="
M1086.795654,1895.531982 
	C1087.210083,1895.163452 1088.215088,1894.953003 1089.505249,1895.065308 
	C1088.989014,1895.488770 1088.187500,1895.589478 1086.795654,1895.531982 
z"/>
<path fill="#022169" opacity="1.000000" stroke="none" 
	d="
M1724.885742,742.101318 
	C1723.955078,742.612854 1723.499878,742.311340 1723.225342,741.298584 
	C1723.871582,741.102600 1724.523315,741.336243 1724.885742,742.101318 
z"/>
<path fill="#00285A" opacity="1.000000" stroke="none" 
	d="
M366.581848,1895.477051 
	C366.520172,1894.797607 366.976624,1894.669922 367.695068,1895.193115 
	C367.861542,1895.408691 367.004517,1895.593140 366.581848,1895.477051 
z"/>
<path fill="#022169" opacity="1.000000" stroke="none" 
	d="
M1746.829346,772.083862 
	C1745.908081,772.578674 1745.470581,772.279541 1745.223999,771.286377 
	C1745.859131,771.101074 1746.491943,771.333557 1746.829346,772.083862 
z"/>
<path fill="#032169" opacity="1.000000" stroke="none" 
	d="
M348.162262,762.692139 
	C348.976624,763.425049 348.807037,763.950806 347.830811,764.488647 
	C347.462494,763.953552 347.513855,763.281555 348.162262,762.692139 
z"/>
<path fill="#032169" opacity="1.000000" stroke="none" 
	d="
M350.117584,760.115295 
	C350.496185,760.712769 350.196930,761.456787 349.338623,762.452271 
	C348.999634,761.889771 349.219696,761.075745 350.117584,760.115295 
z"/>
<path fill="#022169" opacity="1.000000" stroke="none" 
	d="
M1705.046875,716.114929 
	C1704.057251,716.606567 1703.547607,716.235901 1703.277100,715.078552 
	C1703.973145,714.905457 1704.643433,715.225708 1705.046875,716.114929 
z"/>
<path fill="#022169" opacity="1.000000" stroke="none" 
	d="
M1703.469238,714.009399 
	C1702.761963,714.213196 1702.163940,713.795471 1701.570557,712.797607 
	C1702.242920,712.607605 1702.910767,712.997803 1703.469238,714.009399 
z"/>
<path fill="#022169" opacity="1.000000" stroke="none" 
	d="
M1693.852783,701.678833 
	C1693.184814,701.914612 1692.563721,701.546570 1691.926147,700.594360 
	C1692.572876,700.365112 1693.236328,700.720093 1693.852783,701.678833 
z"/>
<path fill="#022169" opacity="1.000000" stroke="none" 
	d="
M1685.857666,691.667114 
	C1685.192993,691.906738 1684.568726,691.544128 1683.926514,690.596558 
	C1684.571899,690.362671 1685.234985,690.713745 1685.857666,691.667114 
z"/>
<path fill="#022169" opacity="1.000000" stroke="none" 
	d="
M1681.211304,686.131592 
	C1680.460327,686.334229 1679.915283,685.932739 1679.367798,685.001343 
	C1680.049316,684.823425 1680.733276,685.175415 1681.211304,686.131592 
z"/>
<path fill="#022169" opacity="1.000000" stroke="none" 
	d="
M1679.497314,683.910889 
	C1678.845093,684.149780 1678.160889,683.693665 1677.296875,682.611267 
	C1677.899780,682.395264 1678.682617,682.805603 1679.497314,683.910889 
z"/>
</svg>